# xmcd CD database file
#
# Track frame offsets:
#	150
#	31603
#	58895
#	75435
#	106960
#	139895
#	162945
#	194333
#
# Disc length: 2988 seconds
#
# Revision: 0
# Processed by: cddbd v1.5.2PL0 Copyright (c) Steve Scherf et al.
# Submitted via: CDex 1.70beta2
#
DISCID=610baa08
DTITLE=Art Pepper - Art in L. A.
DYEAR=1957
DGENRE=Jazz
TTITLE0=Whims of Chambers
TTITLE1=Bijou The Poodle
TTITLE2=Why Are We Afraid
TTITLE3=Softly, As In A Morning Sunrise
TTITLE4=Rhythm-A-Ning
TTITLE5=Diane
TTITLE6=Gettin' Together
TTITLE7=The Way You Look Tonight
EXTD=YEAR: 1957
EXTT0=
EXTT1=
EXTT2=
EXTT3=
EXTT4=
EXTT5=
EXTT6=
EXTT7=
PLAYORDER=
